<?xml version="1.0" encoding="UTF-8"?>
<svg version="1.1" xmlns="http://www.w3.org/2000/svg" width="148" height="148">
<path d="M0 0 C48.84 0 97.68 0 148 0 C148 48.84 148 97.68 148 148 C99.16 148 50.32 148 0 148 C0 99.16 0 50.32 0 0 Z " fill="#FEFDFD" transform="translate(0,0)"/>
<path d="M0 0 C24.09 0 48.18 0 73 0 C73 48.84 73 97.68 73 148 C45.61 148 18.22 148 -10 148 C-10 144.04 -10 140.08 -10 136 C-11.98 136 -13.96 136 -16 136 C-16 127.09 -16 118.18 -16 109 C-0.82 109 14.36 109 30 109 C30 95.8 30 82.6 30 69 C26.04 69 22.08 69 18 69 C18 67.02 18 65.04 18 63 C21.96 63 25.92 63 30 63 C29.93122455 56.9306619 29.84330745 50.86201944 29.73754883 44.79321289 C29.70427076 42.7281871 29.67624786 40.66306973 29.65356445 38.59790039 C29.62007145 35.63127568 29.56775855 32.66549252 29.51171875 29.69921875 C29.50532883 28.7741301 29.4989389 27.84904144 29.49235535 26.8959198 C29.47256119 26.03525406 29.45276703 25.17458832 29.43237305 24.2878418 C29.41571846 23.15199898 29.41571846 23.15199898 29.39872742 21.99320984 C28.89433604 19.47179342 27.97351239 18.59872877 26 17 C23.48322887 15.74161443 21.58706712 15.79181027 18.7734375 15.68359375 C17.7421875 15.64169922 16.7109375 15.59980469 15.6484375 15.55664062 C14.56820312 15.51732422 13.48796875 15.47800781 12.375 15.4375 C11.28703125 15.39431641 10.1990625 15.35113281 9.078125 15.30664062 C6.3855483 15.2003547 3.69287747 15.09831943 1 15 C0.95758277 12.66705225 0.95907063 10.33297433 1 8 C1.33 7.67 1.66 7.34 2 7 C2.2500773 4.54190002 2.2500773 4.54190002 2 2 C1.34 1.34 0.68 0.68 0 0 Z " fill="#FEFDFD" transform="translate(75,0)"/>
<path d="M0 0 C1.11306519 -0.00004028 2.22613037 -0.00008057 3.3729248 -0.00012207 C5.72312068 0.00523258 8.07331612 0.02281267 10.42333984 0.05175781 C14.01846097 0.09360115 17.61170773 0.09282604 21.20703125 0.0859375 C23.49220051 0.09643058 25.77736011 0.10936932 28.0625 0.125 C29.13657104 0.12520142 30.21064209 0.12540283 31.31726074 0.12561035 C40.69150518 0.2740976 40.69150518 0.2740976 44.53125 3.59375 C45.68535254 5.90195508 45.6522797 7.20159276 45.64477539 9.76806641 C45.64469986 10.62880768 45.64462433 11.48954895 45.64454651 12.37637329 C45.63938522 13.30662323 45.63422394 14.23687317 45.62890625 15.1953125 C45.6274913 16.14691254 45.62607635 17.09851257 45.62461853 18.07894897 C45.61901012 21.12558097 45.60645619 24.17214013 45.59375 27.21875 C45.58873608 29.28124894 45.58417299 31.34374903 45.58007812 33.40625 C45.56903796 38.46877817 45.55176767 43.53125173 45.53125 48.59375 C41.57125 48.59375 37.61125 48.59375 33.53125 48.59375 C33.53125 50.57375 33.53125 52.55375 33.53125 54.59375 C20.99125 54.59375 8.45125 54.59375 -4.46875 54.59375 C-4.46875 52.61375 -4.46875 50.63375 -4.46875 48.59375 C-8.42875 48.59375 -12.38875 48.59375 -16.46875 48.59375 C-16.59249395 42.56151797 -16.68315813 36.53002715 -16.7434082 30.49682617 C-16.76852806 28.44526294 -16.80263036 26.39378899 -16.84594727 24.3425293 C-16.90671002 21.39088909 -16.93498492 18.4404335 -16.95703125 15.48828125 C-16.98283768 14.57351517 -17.0086441 13.65874908 -17.03523254 12.71626282 C-17.0370652 8.54041267 -16.80521911 6.16537158 -14.6550293 2.51245117 C-9.85428199 -0.37844402 -5.50461267 -0.0840257 0 0 Z " fill="#F75327" transform="translate(59.46875,14.40625)"/>
<path d="M0 0 C20.46 0 40.92 0 62 0 C62 13.2 62 26.4 62 40 C41.54 40 21.08 40 0 40 C0 26.8 0 13.6 0 0 Z " fill="#29A4F6" transform="translate(43,69)"/>
<path d="M0 0 C9.9 0 19.8 0 30 0 C30 8.91 30 17.82 30 27 C28.02 27 26.04 27 24 27 C24 30.96 24 34.92 24 39 C18.06 39 12.12 39 6 39 C6 35.04 6 31.08 6 27 C4.02 27 2.04 27 0 27 C0 18.09 0 9.18 0 0 Z " fill="#FEFDFD" transform="translate(59,109)"/>
<path d="M0 0 C2.97 0 5.94 0 9 0 C9 8.91 9 17.82 9 27 C10.98 27 12.96 27 15 27 C15 30.96 15 34.92 15 39 C8.07 39 1.14 39 -6 39 C-6 35.04 -6 31.08 -6 27 C-4.02 27 -2.04 27 0 27 C0 18.09 0 9.18 0 0 Z " fill="#F9572B" transform="translate(89,109)"/>
<path d="M0 0 C2.97 0 5.94 0 9 0 C9 8.91 9 17.82 9 27 C10.98 27 12.96 27 15 27 C15 30.96 15 34.92 15 39 C8.07 39 1.14 39 -6 39 C-6 35.04 -6 31.08 -6 27 C-4.02 27 -2.04 27 0 27 C0 18.09 0 9.18 0 0 Z " fill="#F9572B" transform="translate(50,109)"/>
<path d="M0 0 C0 2.31 0 4.62 0 7 C1.98 7 3.96 7 6 7 C6 10.63 6 14.26 6 18 C4.02 18 2.04 18 0 18 C0 28.23 0 38.46 0 49 C-2.97 49 -5.94 49 -9 49 C-9.12372902 42.82535087 -9.21440144 36.65142544 -9.2746582 30.47583008 C-9.29978051 28.3757673 -9.33388458 26.27579177 -9.37719727 24.17602539 C-9.43794871 21.1548916 -9.46623263 18.13491504 -9.48828125 15.11328125 C-9.51408768 14.17664139 -9.5398941 13.24000153 -9.56648254 12.27497864 C-9.56843576 7.72088938 -9.46931398 5.64455936 -6.71948242 1.86791992 C-4 0 -4 0 0 0 Z " fill="#F95427" transform="translate(37,69)"/>
<path d="M0 0 C2.8545836 0.31717596 4.73945628 0.8276075 7.14746094 2.42089844 C10.01353198 6.41103741 9.49561958 10.22592605 9.390625 15.015625 C9.38496521 15.98659119 9.37930542 16.95755737 9.37347412 17.95794678 C9.35110311 21.05580169 9.30090473 24.15249533 9.25 27.25 C9.22993597 29.35154578 9.21168503 31.45310972 9.1953125 33.5546875 C9.1512358 38.7035717 9.08220258 43.85158903 9 49 C6.03 49 3.06 49 0 49 C0 38.77 0 28.54 0 18 C-1.98 18 -3.96 18 -6 18 C-6 14.37 -6 10.74 -6 7 C-4.02 7 -2.04 7 0 7 C0 4.69 0 2.38 0 0 Z " fill="#F95427" transform="translate(111,69)"/>
<path d="M0 0 C3.96 0 7.92 0 12 0 C11.67 2.31 11.34 4.62 11 7 C12.65 7.33 14.3 7.66 16 8 C15.67 9.32 15.34 10.64 15 12 C14.01 12 13.02 12 12 12 C11.67 21.24 11.34 30.48 11 40 C7.37 40 3.74 40 0 40 C0 26.8 0 13.6 0 0 Z " fill="#1D96D8" transform="translate(43,69)"/>
<path d="M0 0 C3.62342508 1.6470114 6.16816086 3.4327343 8 7 C8.84457478 13.54545455 8.84457478 13.54545455 6.9453125 16.81640625 C5.173471 18.99189211 3.52592891 20.73703554 1 22 C-6.0505676 22.57791538 -6.0505676 22.57791538 -9.875 20.25 C-12.79007536 17.16344962 -13.82513599 15.34062405 -14.375 11.125 C-13.89861498 7.15512486 -12.46959574 5.10463464 -10 2 C-6.27420911 -0.48386059 -4.41288598 -0.3804212 0 0 Z " fill="#504D4C" transform="translate(92,29)"/>
<path d="M0 0 C3.11141288 1.6437653 5.28893717 3.03036886 7.375 5.875 C8.23855538 8.81108828 8.36658209 10.94514926 8 14 C5.96006092 17.6578218 4.49580738 19.66946174 1 22 C-5.67337705 22.76579737 -5.67337705 22.76579737 -8.8203125 20.94921875 C-12.63152668 17.82844193 -13.88692788 16.1307212 -14.375 11.25 C-14.35058775 7.89941932 -13.75601354 6.15105468 -11.625 3.5625 C-7.68567941 -0.28302724 -5.48402115 -0.45700176 0 0 Z " fill="#504E4C" transform="translate(62,29)"/>
<path d="M0 0 C2.9838273 2.57694176 4.8735562 4.91079605 6.75 8.375 C6.75 9.695 6.75 11.015 6.75 12.375 C-2.49 12.375 -11.73 12.375 -21.25 12.375 C-20.1760437 5.93126217 -18.61913629 2.9308965 -13.4375 -1 C-8.37528781 -2.44634634 -4.62613475 -2.31306738 0 0 Z " fill="#F6B035" transform="translate(81.25,83.625)"/>
<path d="M0 0 C-0.639375 0.598125 -1.27875 1.19625 -1.9375 1.8125 C-5.01080974 5.07207094 -5.11900832 7.65146529 -5.0625 11.9453125 C-5.05412109 12.93273438 -5.04574219 13.92015625 -5.03710938 14.9375 C-5.02486328 15.989375 -5.01261719 17.04125 -5 18.125 C-4.93371598 28.12786184 -5.24124739 38.02782284 -6 48 C-7.65 48 -9.3 48 -11 48 C-11.12374395 41.96776797 -11.21440813 35.93627715 -11.2746582 29.90307617 C-11.29977806 27.85151294 -11.33388036 25.80003899 -11.37719727 23.7487793 C-11.43796002 20.79713909 -11.46623492 17.8466835 -11.48828125 14.89453125 C-11.51408768 13.97976517 -11.5398941 13.06499908 -11.56648254 12.12251282 C-11.56846955 7.59496937 -11.46865971 5.62506017 -8.67651367 1.90112305 C-5.50499799 -0.35159908 -3.80841119 -0.44283851 0 0 Z " fill="#E44323" transform="translate(54,15)"/>
<path d="M0 0 C2.97 0 5.94 0 9 0 C9 8.91 9 17.82 9 27 C6.03 27 3.06 27 0 27 C0 18.09 0 9.18 0 0 Z " fill="#F7B135" transform="translate(89,109)"/>
<path d="M0 0 C2.97 0 5.94 0 9 0 C9 8.91 9 17.82 9 27 C6.03 27 3.06 27 0 27 C0 18.09 0 9.18 0 0 Z " fill="#F6B031" transform="translate(50,109)"/>
<path d="M0 0 C12.54 0 25.08 0 38 0 C38 1.98 38 3.96 38 6 C25.46 6 12.92 6 0 6 C0 4.02 0 2.04 0 0 Z " fill="#DA9D3A" transform="translate(55,63)"/>
<path d="M0 0 C1.875 1.125 1.875 1.125 3 3 C3.39365568 6.14924548 3.52854531 8.11909116 1.875 10.875 C-0.88090884 12.52854531 -2.85075452 12.39365568 -6 12 C-7.875 10.875 -7.875 10.875 -9 9 C-9.39365568 5.85075452 -9.52854531 3.88090884 -7.875 1.125 C-5.11909116 -0.52854531 -3.14924548 -0.39365568 0 0 Z " fill="#F0AE39" transform="translate(92,34)"/>
<path d="M0 0 C1.875 1.125 1.875 1.125 3 3 C3.39365568 6.14924548 3.52854531 8.11909116 1.875 10.875 C-0.88090884 12.52854531 -2.85075452 12.39365568 -6 12 C-7.875 10.875 -7.875 10.875 -9 9 C-9.39365568 5.85075452 -9.52854531 3.88090884 -7.875 1.125 C-5.11909116 -0.52854531 -3.14924548 -0.39365568 0 0 Z " fill="#F1AE39" transform="translate(62,34)"/>
<path d="M0 0 C4.81103063 2.40551531 7.44616847 5.28523409 10 10 C10 11.32 10 12.64 10 14 C0.76 14 -8.48 14 -18 14 C-17.67 12.68 -17.34 11.36 -17 10 C-17 10.99 -17 11.98 -17 13 C-9.08 13 -1.16 13 7 13 C3.32962745 5.83541885 3.32962745 5.83541885 -3 3 C-6.0198631 2.78253032 -8.9793245 2.81875947 -12 3 C-8.48254884 -0.51745116 -4.72927927 -0.81255957 0 0 Z " fill="#CFA051" transform="translate(78,82)"/>
<path d="M0 0 C2.97 0 5.94 0 9 0 C9 2.97 9 5.94 9 9 C6.36 9 3.72 9 1 9 C1 14.94 1 20.88 1 27 C0.67 27 0.34 27 0 27 C0 18.09 0 9.18 0 0 Z " fill="#E39C21" transform="translate(89,109)"/>
<path d="M0 0 C2.97 0 5.94 0 9 0 C9 2.97 9 5.94 9 9 C6.03 9 3.06 9 0 9 C0 6.03 0 3.06 0 0 Z " fill="#DF9A26" transform="translate(50,109)"/>
<path d="M0 0 C1.98 0 3.96 0 6 0 C6 3.63 6 7.26 6 11 C4.02 11 2.04 11 0 11 C0 7.37 0 3.74 0 0 Z " fill="#F2B64E" transform="translate(105,76)"/>
<path d="M0 0 C1.98 0 3.96 0 6 0 C6 3.63 6 7.26 6 11 C4.02 11 2.04 11 0 11 C0 7.37 0 3.74 0 0 Z " fill="#F2B64E" transform="translate(37,76)"/>
<path d="M0 0 C4.55555556 0.55555556 4.55555556 0.55555556 6 2 C6.04063832 3.66617115 6.042721 5.33388095 6 7 C3.6875 8.125 3.6875 8.125 1 9 C0.01 8.34 -0.98 7.68 -2 7 C-2.3125 4.5 -2.3125 4.5 -2 2 C-1.34 1.34 -0.68 0.68 0 0 Z " fill="#F4B33E" transform="translate(72,0)"/>
<path d="M0 0 C1.32 0 2.64 0 4 0 C4 2.31 4 4.62 4 7 C2.68 7 1.36 7 0 7 C0 4.69 0 2.38 0 0 Z " fill="#19A0F4" transform="translate(72,8)"/>
<path d="M0 0 C1.98 0.495 1.98 0.495 4 1 C3.67 2.32 3.34 3.64 3 5 C1.68 4.67 0.36 4.34 -1 4 C-0.67 2.68 -0.34 1.36 0 0 Z " fill="#48565F" transform="translate(90,76)"/>
<path d="M0 0 C1.98 0.495 1.98 0.495 4 1 C3.67 2.32 3.34 3.64 3 5 C1.68 4.67 0.36 4.34 -1 4 C-0.67 2.68 -0.34 1.36 0 0 Z " fill="#48565F" transform="translate(55,76)"/>
</svg>
